<?xml version="1.0" encoding="utf-8"?>
<!-- Generator: Adobe Illustrator 25.0.1, SVG Export Plug-In . SVG Version: 6.00 Build 0)  -->
<svg version="1.1"
	 id="svg3140" inkscape:export-filename="/home/yorik/Sources/FreeCAD/src/Mod/Start/StartPage/images/settings.png" inkscape:export-xdpi="38.110176" inkscape:export-ydpi="38.110176" inkscape:output_extension="org.inkscape.output.svg.inkscape" inkscape:version="0.92.4 (5da689c313, 2019-01-14)" sodipodi:docname="settings.svg" xmlns:cc="http://creativecommons.org/ns#" xmlns:dc="http://purl.org/dc/elements/1.1/" xmlns:inkscape="http://www.inkscape.org/namespaces/inkscape" xmlns:rdf="http://www.w3.org/1999/02/22-rdf-syntax-ns#" xmlns:sodipodi="http://sodipodi.sourceforge.net/DTD/sodipodi-0.dtd" xmlns:svg="http://www.w3.org/2000/svg"
	 xmlns="http://www.w3.org/2000/svg" xmlns:xlink="http://www.w3.org/1999/xlink" x="0px" y="0px" viewBox="0 0 64 64"
	 style="enable-background:new 0 0 64 64;" xml:space="preserve">
<style type="text/css">
	
		.st0{fill-rule:evenodd;clip-rule:evenodd;fill:#FFFFFF;stroke:#FFFFFF;stroke-width:2.748;stroke-linecap:round;stroke-linejoin:round;stroke-miterlimit:3.4026;}
	
		.st1{fill-rule:evenodd;clip-rule:evenodd;fill:url(#SVGID_1_);stroke:#1C1C1C;stroke-width:2.748;stroke-linecap:round;stroke-linejoin:round;stroke-miterlimit:3.4026;}
	.st2{fill-rule:evenodd;clip-rule:evenodd;fill:none;stroke:#A0A0A0;stroke-width:2.748;stroke-miterlimit:3.4026;}
	
		.st3{fill-rule:evenodd;clip-rule:evenodd;fill:#FFFFFF;stroke:#1C1C1C;stroke-width:2.748;stroke-linecap:round;stroke-linejoin:round;stroke-miterlimit:3.4026;}
	
		.st4{fill-rule:evenodd;clip-rule:evenodd;fill:none;stroke:#FFFFFF;stroke-width:2.748;stroke-linecap:round;stroke-linejoin:round;stroke-miterlimit:3.4026;}
</style>
<inkscape:perspective  id="perspective3148" inkscape:persp3d-origin="32 : 21.333333 : 1" inkscape:vp_x="0 : 32 : 1" inkscape:vp_y="0 : 1000 : 0" inkscape:vp_z="64 : 32 : 1" sodipodi:type="inkscape:persp3d">
	</inkscape:perspective>
<inkscape:perspective  id="perspective3148-5" inkscape:persp3d-origin="32 : 21.333333 : 1" inkscape:vp_x="0 : 32 : 1" inkscape:vp_y="0 : 1000 : 0" inkscape:vp_z="64 : 32 : 1" sodipodi:type="inkscape:persp3d">
	</inkscape:perspective>
<g>
	<path class="st0" d="M14.6,23.8l7.7-0.1c2.4,0,4.7-1,6.4-2.7l6-6c1-1,1-2.6,0-3.6l0,0c-1-1-1-2.6,0-3.7l5-5c1-1,2.6-1,3.6,0
		l18.4,18.1c1,1,1,2.6,0,3.6l-4.9,5.1c-1,1-2.6,1.1-3.7,0l0,0c-1-1-2.7-1-3.6,0l-6.6,6.8c-1.2,1.2-1.9,2.9-1.9,4.6l0.1,8.7
		c0,2.3-2.7,3.5-4.4,1.9L12.8,28.2C11.2,26.6,12.3,23.8,14.6,23.8z"/>
	
		<linearGradient id="SVGID_1_" gradientUnits="userSpaceOnUse" x1="46.2329" y1="26.1518" x2="18.3003" y2="16.9742" gradientTransform="matrix(0.7126 0.7016 -0.7016 0.7126 29.2621 -13.3951)">
		<stop  offset="3.190020e-02" style="stop-color:#545454"/>
		<stop  offset="1" style="stop-color:#A0A0A0"/>
	</linearGradient>
	<path class="st1" d="M38.5,41.1c0-2.4,0.9-4.7,2.6-6.3l10.1-10.4l3.7,3.6l5.1-5.3l-8.8-8.6l-1.1-1l-8.8-8.6l-5.2,5.2l3.7,3.6
		L29.6,23.5c-1.7,1.7-3.9,2.6-6.3,2.7l-9.1,0.1l12,11.8l0.4,0.4l12,11.8L38.5,41.1z"/>
	<path class="st2" d="M20,28.6l3.3,0c3,0,5.9-1.2,8-3.4l11.9-12l-3.7-3.6l1.8-1.8l15.2,15l-1.8,1.8L51.1,21L39.3,33.1
		c-2.1,2.1-3.3,5-3.2,8l0,3.3L20,28.6z"/>
	<polyline class="st3" points="23,36.9 4.3,59.5 27.9,41.7 	"/>
	<path class="st4" d="M20.2,36.1l-18,21.7c-0.8,1-0.8,2.4,0.1,3.4l0,0c0.9,1,2.4,1.1,3.4,0.3l22.8-17"/>
</g>
</svg>
