<?xml version="1.0" encoding="utf-8"?>
<!-- Generator: Adobe Illustrator 25.0.1, SVG Export Plug-In . SVG Version: 6.00 Build 0)  -->
<svg version="1.1"
	 id="svg3140" inkscape:export-filename="/home/yorik/Sources/FreeCAD/src/Mod/Start/StartPage/images/settings.png" inkscape:export-ydpi="38.110176" inkscape:output_extension="org.inkscape.output.svg.inkscape" inkscape:version="0.92.4 (5da689c313, 2019-01-14)" xmlns:cc="http://creativecommons.org/ns#" xmlns:dc="http://purl.org/dc/elements/1.1/" xmlns:inkscape="http://www.inkscape.org/namespaces/inkscape" xmlns:rdf="http://www.w3.org/1999/02/22-rdf-syntax-ns#" xmlns:sodipodi="http://sodipodi.sourceforge.net/DTD/sodipodi-0.dtd" xmlns:svg="http://www.w3.org/2000/svg"
	 xmlns="http://www.w3.org/2000/svg" xmlns:xlink="http://www.w3.org/1999/xlink" x="0px" y="0px" viewBox="0 0 64 64"
	 style="enable-background:new 0 0 64 64;" xml:space="preserve">
<style type="text/css">
	
		.st0{fill-rule:evenodd;clip-rule:evenodd;fill:#FFFFFF;stroke:#FFFFFF;stroke-width:9;stroke-linecap:round;stroke-linejoin:round;stroke-miterlimit:3.4026;}
	
		.st1{fill-rule:evenodd;clip-rule:evenodd;fill:#FFFFFF;stroke:#1C1C1C;stroke-width:9;stroke-linecap:round;stroke-linejoin:round;stroke-miterlimit:3.4026;}
</style>
<inkscape:perspective  id="perspective3148" inkscape:persp3d-origin="32 : 21.333333 : 1" inkscape:vp_x="0 : 32 : 1" inkscape:vp_y="0 : 1000 : 0" inkscape:vp_z="64 : 32 : 1" sodipodi:type="inkscape:persp3d">
	</inkscape:perspective>
<inkscape:perspective  id="perspective3148-5" inkscape:persp3d-origin="32 : 21.333333 : 1" inkscape:vp_x="0 : 32 : 1" inkscape:vp_y="0 : 1000 : 0" inkscape:vp_z="64 : 32 : 1" sodipodi:type="inkscape:persp3d">
	</inkscape:perspective>
<g>
	<path class="st0" d="M52.1,55.1c-0.8,0-1.5-0.3-2.1-0.9L9.7,14c-1.2-1.2-1.2-3.1,0-4.2c1.2-1.2,3.1-1.2,4.2,0L54.3,50
		c1.2,1.2,1.2,3.1,0,4.2C53.7,54.8,52.9,55.1,52.1,55.1z"/>
	<path class="st0" d="M9.7,57.3c-0.8,0-1.5-0.3-2.1-0.9c-1.2-1.2-1.2-3.1,0-4.2L52.2,7.6c1.2-1.2,3.1-1.2,4.2,0
		c1.2,1.2,1.2,3.1,0,4.2L11.8,56.4C11.2,57,10.5,57.3,9.7,57.3z"/>
	<path class="st0" d="M54.3,57.3c-0.8,0-1.5-0.3-2.1-0.9L7.6,11.8c-1.2-1.2-1.2-3.1,0-4.2c1.2-1.2,3.1-1.2,4.2,0l44.6,44.6
		c1.2,1.2,1.2,3.1,0,4.2C55.8,57,55.1,57.3,54.3,57.3z"/>
	<line class="st0" x1="11.9" y1="11.9" x2="52.1" y2="52.1"/>
	<line class="st1" x1="9.7" y1="54.3" x2="54.3" y2="9.7"/>
	<line class="st1" x1="54.3" y1="54.3" x2="9.7" y2="9.7"/>
</g>
</svg>
